<svg viewBox="0 0 31 24" xmlns="http://www.w3.org/2000/svg"><g fill="#fff"><path d="m5.63076923 23.8048352v-1.5824176c.01865673-.2692233-.07943423-.5334569-.26924805-.72529s-.4529947-.2927147-.7224003-.2769078c-.35503276-.0232753-.69459441.1485267-.88615385.4483516-.17464723-.2908854-.49443209-.4629216-.83340659-.4483516-.29514267-.0149204-.57611563.1275731-.73846154.3745055v-.3112088h-.54857143v2.5213187h.55384616v-1.3872528c-.02385274-.1745696.03145784-.350675.15083795-.4802586.11938011-.1295835.29036887-.1991192.4663049-.1896315.36395605 0 .54857143.2373626.54857143.6646154v1.4030769h.55384616v-1.3978022c-.02287396-.1743711.03277482-.3499059.1519336-.4792492.11915877-.1293433.28955117-.1991694.46520925-.1906409.3745055 0 .55384616.2373626.55384616.6646154v1.4030769zm8.19428567-2.5213187h-.901978v-.7648352h-.5538461v.7648352h-.5010989v.5010989h.5116483v1.1604395c0 .5854946.2268132.9336264.8756044.9336264.2423891.0008142.4800812-.0668366.6857143-.1951648l-.1582418-.4694506c-.1471112.0877476-.3140753.136748-.4852747.1424176-.2637362 0-.363956-.1687912-.363956-.421978v-1.1498901h.8967033zm4.6786814-.0632967c-.2724614-.008013-.5274771.1336624-.6646154.3692307v-.305934h-.5432967v2.5213187h.5485714v-1.4136264c0-.4167033.1793407-.6487912.5274725-.6487912.1173321-.001605.2338326.0199028.3428572.0632967l.1687912-.5274725c-.1252821-.0448183-.2572734-.068006-.3903297-.0685715zm-7.0734066.2637362c-.3105165-.1846214-.6675297-.2761633-1.0285715-.2637362-.63824172 0-1.05494501.305934-1.05494501.8070329 0 .4114286.30593406.6646154.87032971.7437363l.2637362.0369231c.3006594.0421978.4430769.1213187.4430769.2637363 0 .1951648-.2004395.305934-.574945.305934-.3012389.0087197-.59664971-.0841768-.83868133-.2637362l-.26373626.4272527c.31954651.2231184.70228265.3377544 1.09186809.327033.7279121 0 1.1498901-.3428572 1.1498901-.8228572s-.3323076-.6751648-.8808791-.7542857l-.2637362-.0369231c-.2373627-.0316483-.42725278-.0791208-.42725278-.2479121 0-.1687912.17934068-.2953846.47999998-.2953846.2778925.0032282.550311.0776892.7912088.2162638zm14.6927472-.2637362c-.2724613-.008013-.527477.1336624-.6646154.3692307v-.305934h-.5432967v2.5213187h.5485715v-1.4136264c0-.4167033.1793406-.6487912.5274725-.6487912.1173321-.001605.2338325.0199028.3428571.0632967l.1687912-.5274725c-.1252821-.0448183-.2572734-.068006-.3903296-.0685715zm-7.0681318 1.3186813c-.0131927.3582685.1251968.705511.3812001.9564946.2560032.2509835.6059177.3824705.9638548.3621867.3293746.0167578.6530727-.0905143.9072527-.3006593l-.2637362-.4430769c-.189634.1446095-.4208749.2241563-.6593407.2268131-.4204745-.0340211-.7443723-.3851843-.7443723-.8070329 0-.4218487.3238978-.7730119.7443723-.807033.2384658.0026568.4697067.0822037.6593407.2268132l.2637362-.4430769c-.25418-.2101451-.5778781-.3174171-.9072527-.3006594-.3579371-.0202838-.7078516.1112032-.9638548.3621868-.2560033.2509835-.3943928.598226-.3812001.9564945zm5.1375824 0v-1.2553846h-.5485715v.305934c-.1889925-.243178-.4834348-.3805844-.7912087-.3692307-.7282876 0-1.3186814.5903937-1.3186814 1.3186813s.5903938 1.3186813 1.3186814 1.3186813c.3077739.0113537.6022162-.1260527.7912087-.3692308v.3059341h.5485715zm-2.0413187 0c.0243943-.4138896.3751495-.732367.7894656-.716816.4143161.0155509.7402106.3594258.73351.7739795-.0067005.4145537-.3435382.7477166-.7581404.7498695-.2111106.0026712-.4137431-.0829509-.5589726-.2361931-.1452296-.1532423-.2198566-.3601767-.2058626-.5708399zm-6.6197802-1.3186813c-.7282876.010196-1.3104158.6088553-1.3002198 1.3371428.010196.7282876.6088553 1.3104158 1.3371428 1.3002198.3794478.0194766.7525993-.102714 1.047033-.3428571l-.2637362-.4061539c-.2082562.1670186-.4662589.2598253-.7331869.2637363-.3770462.0324264-.7114074-.2411418-.7542857-.6171429h1.8725275c0-.0685714 0-.1371428 0-.210989 0-.7912088-.4905495-1.3186813-1.1973626-1.3186813zm0 .4905494c.1657854-.0035345.3261811.0589529.4458828.1737083s.1888982.2723729.1923589.4381599h-1.3186813c.0198668-.3521345.3174009-.6238979.6698901-.6118682zm13.7432967.8334066v-2.2734066h-.5274726v1.3186813c-.1889925-.243178-.4834348-.3805844-.7912087-.3692307-.7282876 0-1.3186814.5903937-1.3186814 1.3186813s.5903938 1.3186813 1.3186814 1.3186813c.3077739.0113537.6022162-.1260527.7912087-.3692308v.3059341h.5274726zm.9151648.894066c.0342891-.0004201.0683311.0058507.1002198.0184615.0302882.0123597.0580126.0302465.0817582.0527472.0231743.0227398.0419506.049563.0553846.0791209.0269964.0622543.0269964.1329106 0 .1951649-.013434.0295579-.0322103.0563811-.0553846.0791208-.0237456.0225008-.05147.0403875-.0817582.0527473-.0315739.0139319-.0657088.0211182-.1002198.0210989-.1020528-.0007692-.1945021-.0603477-.2373626-.152967-.0266838-.0623187-.0266838-.1328462 0-.1951649.013434-.0295579.0322103-.0563811.0553846-.0791209.0237456-.0225007.05147-.0403875.0817582-.0527472.0343517-.0136646.0711924-.0199545.1081319-.0184615zm0 .4457142c.0263234.00016.0523847-.005232.0764835-.0158241.0226909-.0101308.0432697-.0244465.0606594-.0421978.068386-.0746129.068386-.1891234 0-.2637363-.0173482-.0178003-.037937-.0321229-.0606594-.0421978-.0241226-.0105174-.0501679-.0159061-.0764835-.0158242-.0262928.000139-.0522941.0055185-.0764835.0158242-.0236955.0097161-.0452144.024062-.0632967.0421978-.068386.0746129-.068386.1891234 0 .2637363.0181267.0180816.0396341.0324199.0632967.0421978.0266083.0114746.0554378.0168801.0843956.0158241zm.0158242-.3138461c.0246201-.001194.0488811.006271.0685714.0210989.0163787.013555.0252162.0341759.0237363.0553846.0007656.0177113-.0059313.0349319-.0184616.0474725-.0152866.0138847-.0347877.0222423-.0553846.0237363l.0764835.087033h-.0606593l-.0712088-.087033h-.0237363v.087033h-.0501098v-.2320879zm-.058022.0448352v.0632967h.058022c.0103249.0030782.0213234.0030782.0316483 0 .0037617-.007465.0037617-.0162713 0-.0237363.0037617-.007465.0037617-.0162713 0-.0237363-.0103249-.0030783-.0213234-.0030783-.0316483 0zm-2.9010989-1.0707693c.0243943-.4138896.3751495-.732367.7894656-.716816.4143162.015551.7402106.3594258.73351.7739795-.0067005.4145537-.3435382.7477166-.7581404.7498695-.2111106.0026712-.4137431-.0829509-.5589726-.2361931-.1452296-.1532422-.2198566-.3601767-.2058626-.5708399zm-18.5221978 0v-1.2606593h-.54857142v.305934c-.18899253-.243178-.48343483-.3805844-.7912088-.3692307-.72828758 0-1.31868131.5903937-1.31868131 1.3186813s.59039373 1.3186813 1.31868131 1.3186813c.30777397.0113537.60221627-.1260527.7912088-.3692308v.3059341h.54857142zm-2.04131868 0c.02439429-.4138896.37514952-.732367.78946564-.716816.41431611.015551.74021056.3594258.73350999.7739795-.00670056.4145537-.34353819.7477166-.75814046.7498695-.21202035.0041624-.4160635-.080807-.56246277-.2342254-.14639926-.1534184-.22172687-.3612143-.20764712-.5728076z"/><path d="m29.8575824 15.5452451v-.4113475h.1239561v-.0851064h-.3138462v.0851064h.1345055v.4113475zm.6092308 0v-.4964539h-.0949451l-.1107692.3546099-.1107692-.3546099h-.0843956v.4964539h.0685714v-.3723404l.1028571.322695h.0712088l.1028572-.322695v.3758865z"/><path d="m14.651375 17.2269568c.0749167.0627739.155.1255478.2337917.1870406-1.5202917 1.0031016-3.3454167 1.5860023-5.30487503 1.5860023-5.29195834.0012811-9.58029167-4.2519721-9.58029167-9.49935929 0-5.24610605 4.28833333-9.50064041 9.579-9.50064041 1.96075 0 3.785875.58418177 5.3022917 1.58600227-.0775.06533612-.155.12554784-.213125.19216506-2.2681667 1.94342927-3.5662917 4.760569-3.5662917 7.72247308 0 2.96062299 1.2929583 5.77776269 3.5495 7.72631639zm6.769625-17.2269568c-1.9633333 0-3.785875.58418177-5.3022917 1.58600227.0775.06533612.155.12554784.213125.19216506 2.2681667 1.94342927 3.5662917 4.760569 3.5662917 7.72247308 0 2.95934189-1.2929583 5.77391939-3.5495 7.72631639-.0749167.0627739-.155.1255478-.2337917.1870406 1.5202917 1.0031016 3.3428334 1.5860023 5.304875 1.5860023 5.2919584.0012811 9.5802917-4.2519721 9.5802917-9.49935929 0-5.24482495-4.2883333-9.50064041-9.579-9.50064041zm-5.921 2.0369496c-.124.09608253-.244125.19216506-.3616667.29593419-2.0201666 1.74101541-3.2950416 4.30449727-3.2950416 7.16775662 0 2.86454049 1.274875 5.42674119 3.2950416 7.16775659.11625.1024881.2389584.2024139.3616667.2972153.124-.0948014.244125-.1947272.3616667-.2972153 2.018875-1.7410154 3.2950416-4.3032161 3.2950416-7.16775659 0-2.86325935-1.274875-5.42674121-3.2950416-7.16775662-.11625-.10248803-.2376667-.19985166-.3616667-.29593419z"/></g></svg>