<svg viewBox="0 0 14 17" xmlns="http://www.w3.org/2000/svg"><path d="m11.5370753 1.24881015c-.740265-.84374283-2.07840216-1.20547325-3.79020957-1.20547325h-4.96826557c-.35023287 0-.64784237.25471481-.70267681.60008334l-2.06867347 13.12002416c-.04112583.2586948.15919676.4930678.4214292.4930678h3.06719093l.77033544-4.88601397-.02387951.15300579c.05483444-.34536855.35023287-.60008332.70002353-.60008332h1.45753481c2.86333061 0 5.10535162-1.16302079 5.76026952-4.52737903.0194573-.09949797.0362614-.19634267.0508545-.2909763-.0826939-.04377911-.0826939-.04377911 0 0 .195016-1.24350359-.0013267-2.0898997-.673933-2.85625522" fill="#e8e8e8"/><path d="m5.43983935 3.65710337c.08180947-.03891476.17290535-.06058321.26842341-.06058321h3.89501413c.46122841 0 .89150181.0300705 1.28462941.09330699.1127644.01813075.221991.03891476.3281222.06279428.1061312.0234373.2091669.04997009.3091071.07915617.04997.01459304.0990557.02962828.1472569.04554796.1932472.06456313.373228.13973938.5386158.22773981.195016-1.2439458-.0013267-2.0898997-.673933-2.85625522-.7407072-.84374283-2.07840216-1.20547325-3.79020957-1.20547325h-4.96870778c-.34979066 0-.64740016.25471481-.7022346.60008334l-2.06867347 13.11958196c-.04112583.259137.15919676.4930678.42098699.4930678h3.06763314l1.5981586-10.13464274c.03272378-.20784022.16627217-.37809231.34581074-.46432389z" fill="#e8e8e8"/><path d="m12.1601538 4.39604167c-.6549179 3.36391603-2.89693891 4.52737903-5.76026952 4.52737903h-1.45797702c-.34979066 0-.6451891.25471477-.69958132.60008332l-.95827606 6.07512528c-.03581927.2264132.13929717.4316001.36836362.4316001h2.58562074c.30601153 0 .56647512-.2228755.61423417-.5249071l.02520612-.1317795.48731897-3.0884172.03139714-.1706943c.04775905-.3020316.30822264-.5249071.61423417-.5249071h.38693657c2.50469572 0 4.46591142-1.0175326 5.03901972-3.96046161.2392373-1.22979498.1154177-2.25661411-.5173895-2.97786389-.1919205-.21845333-.4302734-.39887632-.7079833-.54613333-.0150353.09507585-.0313972.19147833-.0508545.2909763z" fill="#ededed"/><path d="m11.5255778 3.8317776c-.0999402-.02918608-.2029759-.05571887-.3091071-.07915617s-.2158-.04422132-.3281222-.06235207c-.3935698-.0636787-.823401-.0937492-1.28507161-.0937492h-3.89457192c-.09596027 0-.18705615.02166845-.26842341.06102543-.17998078.08623158-.31308696.25604145-.34581074.46432389l-.82782316 5.24862875-.02387951.15300579c.05439223-.34536855.34979066-.60008332.69958132-.60008332h1.45797702c2.86333062 0 5.10535161-1.16302079 5.76026951-4.52737903.0194573-.09949797.0358192-.19590045.0508545-.2909763-.16583-.08755822-.3453686-.16317668-.5386158-.2272976-.0482012-.01591967-.0972869-.03139713-.1472569-.04599017" fill="#e1e1e1"/></svg>