<svg width="81" height="80" viewBox="0 0 81 80" fill="none" xmlns="http://www.w3.org/2000/svg">
<path opacity="0.3" d="M80.5 40C80.5 62.0914 62.5914 80 40.5 80C18.4086 80 0.5 62.0914 0.5 40C0.5 17.9086 18.4086 0 40.5 0C62.5914 0 80.5 17.9086 80.5 40ZM11.4071 40C11.4071 56.0675 24.4325 69.0929 40.5 69.0929C56.5675 69.0929 69.5929 56.0675 69.5929 40C69.5929 23.9325 56.5675 10.9071 40.5 10.9071C24.4325 10.9071 11.4071 23.9325 11.4071 40Z" fill="#2F2E30"/>
<circle cx="40.5" cy="40" r="29" fill="black"/>
<path d="M28.5991 50.5994L28.5988 50.5992C27.7261 49.9485 26.9255 48.9207 26.3427 47.7591C25.7599 46.5974 25.4166 45.3452 25.4166 44.2667V31.8667C25.4166 29.5075 27.1715 26.9619 29.3911 26.1353L29.3921 26.1349L37.7083 23.0184C37.7084 23.0184 37.7085 23.0183 37.7086 23.0183C38.4621 22.7367 39.4615 22.5875 40.4833 22.5875C41.5051 22.5875 42.5046 22.7367 43.2581 23.0183C43.2581 23.0183 43.2582 23.0184 43.2582 23.0184L51.5745 26.1349L51.5755 26.1353C53.7951 26.9619 55.55 29.5075 55.55 31.8667V44.25C55.55 45.3372 55.2066 46.5893 54.624 47.7484C54.0415 48.9074 53.241 49.9314 52.3678 50.5825L52.3675 50.5827L45.2009 55.9327L45.2008 55.9326L45.1946 55.9374C43.9119 56.9265 42.224 57.4334 40.5 57.4334C38.7773 57.4334 37.0851 56.9271 35.7648 55.9487C35.7647 55.9486 35.7645 55.9484 35.7644 55.9483L28.5991 50.5994ZM38.2418 24.4316L38.2412 24.4318L29.9245 27.5485L29.9238 27.5488C29.0962 27.8603 28.355 28.5226 27.8241 29.2907C27.293 30.0591 26.9333 30.9899 26.9333 31.8834V44.2667C26.9333 45.1612 27.2439 46.1893 27.7009 47.1011C28.1578 48.0127 28.7932 48.8723 29.5008 49.4007L29.5009 49.4007L36.6672 54.7504C37.7292 55.5446 39.1282 55.925 40.502 55.925C41.876 55.925 43.2782 55.5446 44.3477 54.7517L44.3491 54.7507L51.5157 49.4007L51.5166 49.4C52.2314 48.864 52.8668 48.0051 53.3222 47.0945C53.7775 46.1838 54.0833 45.1601 54.0833 44.2667V31.8667C54.0833 30.9805 53.7229 30.0539 53.1925 29.2866C52.662 28.519 51.9223 27.8541 51.0976 27.5339L51.0976 27.5339L51.0921 27.5318L42.7754 24.4152L42.7755 24.4151L42.7664 24.4119C42.1282 24.1866 41.3001 24.0833 40.5007 24.0854C39.702 24.0876 38.8751 24.1953 38.2418 24.4316ZM51.7498 25.6671L51.7498 25.6671L51.7498 25.6671Z" fill="#FAFAFA" stroke="#FAFAFA"/>
<path d="M37.9131 41.0536L38.2667 41.4071L38.6202 41.0536L44.9036 34.7703C45.1916 34.4822 45.6751 34.4822 45.9631 34.7703C46.2512 35.0583 46.2512 35.5417 45.9631 35.8298L38.7965 42.9965C38.6452 43.1478 38.4579 43.2167 38.2667 43.2167C38.0755 43.2167 37.8882 43.1478 37.7369 42.9965L35.0536 40.3131C34.7655 40.0251 34.7655 39.5417 35.0536 39.2536C35.3416 38.9655 35.8251 38.9655 36.1131 39.2536L37.9131 41.0536Z" fill="#FAFAFA" stroke="#FAFAFA"/>
</svg>
