<svg width="81" height="80" viewBox="0 0 81 80" fill="none" xmlns="http://www.w3.org/2000/svg">
<path opacity="0.3" d="M80.5 40C80.5 62.0914 62.5914 80 40.5 80C18.4086 80 0.5 62.0914 0.5 40C0.5 17.9086 18.4086 0 40.5 0C62.5914 0 80.5 17.9086 80.5 40ZM11.4071 40C11.4071 56.0675 24.4325 69.0929 40.5 69.0929C56.5675 69.0929 69.5929 56.0675 69.5929 40C69.5929 23.9325 56.5675 10.9071 40.5 10.9071C24.4325 10.9071 11.4071 23.9325 11.4071 40Z" fill="#2F2E30"/>
<circle cx="40.5" cy="40" r="29" fill="black"/>
<g clip-path="url(#clip0_200_1957)">
<path d="M33.8333 45.0001C33.8333 43.1591 32.3409 41.6667 30.5 41.6667C28.659 41.6667 27.1666 43.1591 27.1666 45.0001V48.3334C27.1666 50.1744 28.659 51.6667 30.5 51.6667C32.3409 51.6667 33.8333 50.1744 33.8333 48.3334V45.0001Z" stroke="white" stroke-width="2" stroke-linecap="round" stroke-linejoin="round"/>
<path d="M53.8333 45.0001C53.8333 43.1591 52.3409 41.6667 50.5 41.6667C48.659 41.6667 47.1666 43.1591 47.1666 45.0001V48.3334C47.1666 50.1744 48.659 51.6667 50.5 51.6667C52.3409 51.6667 53.8333 50.1744 53.8333 48.3334V45.0001Z" stroke="white" stroke-width="2" stroke-linecap="round" stroke-linejoin="round"/>
<path d="M27.1666 45V40C27.1666 36.4637 28.5714 33.0724 31.0719 30.5719C33.5724 28.0714 36.9637 26.6666 40.5 26.6666C44.0362 26.6666 47.4276 28.0714 49.928 30.5719C52.4285 33.0724 53.8333 36.4637 53.8333 40V45" stroke="white" stroke-width="2" stroke-linecap="round" stroke-linejoin="round"/>
<path d="M50.5 51.6667C50.5 52.9928 49.4464 54.2646 47.5711 55.2023C45.6957 56.14 43.1522 56.6667 40.5 56.6667" stroke="white" stroke-width="2" stroke-linecap="round" stroke-linejoin="round"/>
</g>
<defs>
<clipPath id="clip0_200_1957">
<rect width="40" height="40" fill="white" transform="translate(20.5 20)"/>
</clipPath>
</defs>
</svg>
