<svg width="20" height="21" viewBox="0 0 20 21" fill="none" xmlns="http://www.w3.org/2000/svg">
<path opacity="0.25" d="M16.673 10.8517C17.7437 10.0418 17.1709 8.33517 15.8284 8.33517H13.3992C12.7853 8.33517 12.243 7.9352 12.0617 7.34868L11.3375 5.00637C10.9309 3.69105 9.0691 3.69105 8.66246 5.00637L7.93832 7.34868C7.75699 7.9352 7.21469 8.33517 6.60078 8.33517H4.12961C2.79142 8.33517 2.21592 10.0327 3.27822 10.8465L5.39469 12.4679C5.85885 12.8235 6.05314 13.4301 5.88196 13.9892L5.11296 16.5007C4.71416 17.8032 6.22167 18.8503 7.30301 18.022L9.14861 16.6081C9.65097 16.2232 10.349 16.2232 10.8514 16.6081L12.6807 18.0095C13.7636 18.839 15.2725 17.7879 14.8696 16.4846L14.09 13.9627C13.9159 13.3997 14.113 12.7881 14.5829 12.4326L16.673 10.8517Z" fill="black"/>
<path d="M10.0158 9.20061V7.70061V4.01378V4.01378C9.42075 4.00558 8.88921 4.3846 8.70304 4.94987L8.46587 5.67003L7.95103 7.36309C7.77172 7.95274 7.2279 8.35578 6.61159 8.35578H4.13802C2.79896 8.35578 2.22401 10.0552 3.28801 10.8682L5.40877 12.4887C5.87387 12.8441 6.06878 13.4513 5.89742 14.011L5.14249 16.4766C4.7424 17.7833 6.25966 18.8303 7.33936 17.9926L9.11745 16.613C9.36298 16.4225 9.66491 16.3191 9.97567 16.3191H10.0158V12.2006V9.20061Z" fill="#FFAD33"/>
</svg>
